<svg xmlns="http://www.w3.org/2000/svg" xmlns:xlink="http://www.w3.org/1999/xlink" width="816" zoomAndPan="magnify" viewBox="0 0 612 791.999994" height="1056" preserveAspectRatio="xMidYMid meet" version="1.0"><defs><clipPath id="904997543a"><path d="M 138.996094 228.996094 L 472.746094 228.996094 L 472.746094 562.746094 L 138.996094 562.746094 Z M 138.996094 228.996094 " clip-rule="nonzero"/></clipPath></defs><rect x="-61.2" width="734.4" fill="#ffffff" y="-79.199999" height="950.399992" fill-opacity="1"/><path fill="#000000" d="M 379.257812 359.179688 C 379.257812 359.179688 381.785156 412.460938 341.15625 445.355469 C 280.566406 494.5625 215.191406 454.636719 215.191406 454.636719 C 215.191406 454.636719 231.078125 454.917969 245.136719 451.121094 C 259.195312 447.324219 269.179688 438.328125 269.179688 438.328125 C 269.179688 438.328125 253.855469 435.09375 245.980469 429.332031 C 237.96875 423.566406 235.015625 412.460938 235.015625 412.460938 C 235.015625 412.460938 240.21875 412.882812 243.589844 412.882812 C 246.964844 412.742188 251.042969 411.195312 251.042969 411.195312 C 251.042969 411.195312 240.078125 409.929688 229.8125 398.402344 C 221.800781 389.402344 222.363281 374.363281 222.363281 374.363281 C 222.363281 374.363281 227.144531 377.171875 229.8125 377.875 C 232.34375 378.578125 237.265625 378.578125 237.265625 378.578125 C 237.265625 378.578125 227.707031 372.816406 223.347656 358.195312 C 219.128906 343.433594 227.285156 328.53125 227.285156 328.53125 C 227.285156 328.53125 241.34375 345.683594 262.570312 356.789062 C 283.800781 367.894531 303.761719 367.472656 303.761719 367.472656 C 303.761719 367.472656 300.808594 358.617188 305.871094 345.683594 C 310.933594 332.609375 322.460938 323.328125 339.894531 321.921875 C 357.324219 320.515625 368.429688 333.730469 368.429688 333.730469 C 368.429688 333.730469 373.773438 332.75 379.960938 330.5 C 386.144531 328.25 392.191406 325.4375 392.191406 325.4375 C 392.191406 325.4375 390.082031 332.046875 385.863281 337.246094 C 381.644531 342.449219 376.867188 345.542969 376.867188 345.542969 C 376.867188 345.542969 382.347656 345.121094 387.832031 343.574219 C 393.316406 342.027344 396.40625 340.480469 396.40625 340.480469 C 390.363281 351.164062 379.257812 359.179688 379.257812 359.179688 Z M 379.257812 359.179688 " fill-opacity="1" fill-rule="nonzero"/><g clip-path="url(#904997543a)"><path fill="#000000" d="M 305.871094 562.746094 C 213.929688 562.746094 138.996094 487.953125 138.996094 395.871094 C 138.996094 303.789062 213.929688 228.996094 305.871094 228.996094 C 397.8125 228.996094 472.746094 303.929688 472.746094 395.871094 C 472.746094 487.8125 397.953125 562.746094 305.871094 562.746094 Z M 305.871094 238.132812 C 218.847656 238.132812 148.132812 308.847656 148.132812 395.871094 C 148.132812 482.894531 218.847656 553.609375 305.871094 553.609375 C 392.894531 553.609375 463.609375 482.894531 463.609375 395.871094 C 463.609375 308.847656 392.894531 238.132812 305.871094 238.132812 Z M 305.871094 238.132812 " fill-opacity="1" fill-rule="nonzero"/></g></svg>